<svg width="258" height="258" viewBox="0 0 258 258" fill="none" xmlns="http://www.w3.org/2000/svg">
<g filter="url(#filter0_i_21_36)">
<path d="M256.222 218.984L209.909 211.992C209.064 211.865 208.522 211.026 208.751 210.203L218.324 175.876L163.566 83.6378C163.165 82.961 163.39 82.0868 164.067 81.6866L189.762 66.5167C190.455 66.1077 191.349 66.3548 191.734 67.0616L243.793 162.659L257.812 217.223C258.066 218.21 257.23 219.136 256.222 218.984ZM107.353 211.752L97.3476 175.876L210.477 175.987C211.424 175.988 212.106 176.897 211.842 177.807L202.224 210.935C202.047 211.544 201.488 211.962 200.854 211.961L107.353 211.752Z" fill="#1515FF"/>
</g>
<g filter="url(#filter1_i_21_36)">
<path d="M1.63565 38.0164L47.9481 45.0086C48.7932 45.1362 49.3359 45.9745 49.1064 46.7977L39.5331 81.1239L94.2909 173.362C94.6928 174.039 94.4688 174.914 93.7909 175.314L68.0966 190.483C67.4032 190.893 66.508 190.645 66.123 189.938L14.0644 94.3406L0.0458056 39.7772C-0.207663 38.7901 0.627973 37.8646 1.63565 38.0164ZM150.505 45.2479L160.511 81.1239L47.3808 81.0135C46.4335 81.0125 45.7514 80.1029 46.0155 79.1932L55.6337 46.0662C55.8105 45.4572 56.3696 45.0385 57.0038 45.0399L150.505 45.2479Z" fill="#1515FF"/>
</g>
<defs>
<filter id="filter0_i_21_36" x="97.3477" y="66.3191" width="165.511" height="152.681" filterUnits="userSpaceOnUse" color-interpolation-filters="sRGB">
<feFlood flood-opacity="0" result="BackgroundImageFix"/>
<feBlend mode="normal" in="SourceGraphic" in2="BackgroundImageFix" result="shape"/>
<feColorMatrix in="SourceAlpha" type="matrix" values="0 0 0 0 0 0 0 0 0 0 0 0 0 0 0 0 0 0 127 0" result="hardAlpha"/>
<feOffset dx="5"/>
<feGaussianBlur stdDeviation="5"/>
<feComposite in2="hardAlpha" operator="arithmetic" k2="-1" k3="1"/>
<feColorMatrix type="matrix" values="0 0 0 0 0 0 0 0 0 0 0 0 0 0 0 0 0 0 0.25 0"/>
<feBlend mode="normal" in2="shape" result="effect1_innerShadow_21_36"/>
</filter>
<filter id="filter1_i_21_36" x="0" y="38" width="165.511" height="152.681" filterUnits="userSpaceOnUse" color-interpolation-filters="sRGB">
<feFlood flood-opacity="0" result="BackgroundImageFix"/>
<feBlend mode="normal" in="SourceGraphic" in2="BackgroundImageFix" result="shape"/>
<feColorMatrix in="SourceAlpha" type="matrix" values="0 0 0 0 0 0 0 0 0 0 0 0 0 0 0 0 0 0 127 0" result="hardAlpha"/>
<feOffset dx="5"/>
<feGaussianBlur stdDeviation="5"/>
<feComposite in2="hardAlpha" operator="arithmetic" k2="-1" k3="1"/>
<feColorMatrix type="matrix" values="0 0 0 0 0 0 0 0 0 0 0 0 0 0 0 0 0 0 0.25 0"/>
<feBlend mode="normal" in2="shape" result="effect1_innerShadow_21_36"/>
</filter>
</defs>
</svg>
